<svg width="35" height="35" viewBox="0 0 35 35" fill="none" xmlns="http://www.w3.org/2000/svg">
<g id="Frame">
<path id="Vector" d="M28.1616 6.96847V28.0315C28.1576 28.4043 28.0546 28.7695 27.8631 29.0894C27.6716 29.4094 27.3985 29.6727 27.0717 29.8523C26.7449 30.032 26.3763 30.1215 26.0035 30.1117C25.6307 30.102 25.2673 29.9933 24.9503 29.7968L9.23327 19.9672V29.0673C9.23327 29.3462 9.12248 29.6136 8.92527 29.8108C8.72806 30.008 8.46059 30.1188 8.1817 30.1188C7.9028 30.1188 7.63533 30.008 7.43813 29.8108C7.24092 29.6136 7.13013 29.3462 7.13013 29.0673V5.93268C7.13013 5.65378 7.24092 5.38631 7.43813 5.1891C7.63533 4.99189 7.9028 4.8811 8.1817 4.8811C8.46059 4.8811 8.72806 4.99189 8.92527 5.1891C9.12248 5.38631 9.23327 5.65378 9.23327 5.93268V15.0327L24.9503 5.20315C25.2669 5.00445 25.6307 4.89397 26.0043 4.88315C26.3779 4.87232 26.7475 4.96155 27.075 5.14158C27.4025 5.32162 27.6759 5.58592 27.867 5.90712C28.058 6.22833 28.1597 6.59476 28.1616 6.96847Z" fill="white"/>
</g>
</svg>
