<svg width="36" height="36" viewBox="0 0 36 36" fill="none" xmlns="http://www.w3.org/2000/svg">
<path id="Vector" d="M18.1984 0.476074C14.7718 0.476074 11.4221 1.49219 8.57297 3.39593C5.72383 5.29967 3.50319 8.00552 2.19187 11.1713C0.880554 14.3371 0.537453 17.8207 1.20596 21.1815C1.87446 24.5423 3.52454 27.6294 5.94754 30.0524C8.37054 32.4754 11.4576 34.1255 14.8184 34.794C18.1792 35.4625 21.6628 35.1194 24.8286 33.808C27.9944 32.4967 30.7002 30.2761 32.604 27.4269C34.5077 24.5778 35.5238 21.2281 35.5238 17.8015C35.519 13.208 33.6921 8.80401 30.444 5.55592C27.1959 2.30783 22.7919 0.480925 18.1984 0.476074ZM24.4722 22.1895C24.5961 22.3133 24.6943 22.4603 24.7613 22.6221C24.8283 22.7838 24.8628 22.9572 24.8628 23.1324C24.8628 23.3075 24.8283 23.4809 24.7613 23.6427C24.6943 23.8044 24.5961 23.9514 24.4722 24.0753C24.3484 24.1991 24.2014 24.2973 24.0396 24.3643C23.8778 24.4313 23.7045 24.4658 23.5293 24.4658C23.3542 24.4658 23.1808 24.4313 23.019 24.3643C22.8573 24.2973 22.7103 24.1991 22.5864 24.0753L18.1984 19.6856L13.8105 24.0753C13.6866 24.1991 13.5396 24.2973 13.3779 24.3643C13.2161 24.4313 13.0427 24.4658 12.8676 24.4658C12.6924 24.4658 12.519 24.4313 12.3573 24.3643C12.1955 24.2973 12.0485 24.1991 11.9247 24.0753C11.8008 23.9514 11.7026 23.8044 11.6356 23.6427C11.5686 23.4809 11.5341 23.3075 11.5341 23.1324C11.5341 22.9572 11.5686 22.7838 11.6356 22.6221C11.7026 22.4603 11.8008 22.3133 11.9247 22.1895L16.3143 17.8015L11.9247 13.4135C11.6746 13.1634 11.5341 12.8242 11.5341 12.4706C11.5341 12.1169 11.6746 11.7777 11.9247 11.5277C12.1747 11.2776 12.5139 11.1371 12.8676 11.1371C13.2212 11.1371 13.5604 11.2776 13.8105 11.5277L18.1984 15.9173L22.5864 11.5277C22.7103 11.4039 22.8573 11.3056 23.019 11.2386C23.1808 11.1716 23.3542 11.1371 23.5293 11.1371C23.7045 11.1371 23.8778 11.1716 24.0396 11.2386C24.2014 11.3056 24.3484 11.4039 24.4722 11.5277C24.5961 11.6515 24.6943 11.7985 24.7613 11.9603C24.8283 12.1221 24.8628 12.2955 24.8628 12.4706C24.8628 12.6457 24.8283 12.8191 24.7613 12.9809C24.6943 13.1427 24.5961 13.2897 24.4722 13.4135L20.0826 17.8015L24.4722 22.1895Z" fill="white"/>
</svg>
