<svg width="28" height="28" viewBox="0 0 28 28" fill="none" xmlns="http://www.w3.org/2000/svg">
<path id="Vector" fill-rule="evenodd" clip-rule="evenodd" d="M15.1237 20.3931C14.914 20.6154 14.616 20.7541 14.286 20.7541C13.9559 20.7541 13.6602 20.6177 13.4516 20.3988L7.42359 14.8716C6.95372 14.4395 6.92394 13.7095 7.35598 13.2396C7.78804 12.7709 8.51802 12.74 8.9879 13.172L13.126 16.9686V1.59033C13.126 0.95085 13.6463 0.432861 14.2858 0.432861C14.9241 0.432861 15.4421 0.95085 15.4421 1.59033V16.9686L19.5802 13.172C20.0501 12.74 20.7824 12.7709 21.2121 13.2396C21.6442 13.7095 21.6144 14.4395 21.1445 14.8716C19.139 16.7109 17.1185 18.5423 15.1223 20.3941L15.1237 20.3931ZM26.6274 25.1179C27.2691 25.1179 27.7871 25.6359 27.7871 26.2754C27.7871 26.9149 27.2691 27.4329 26.6274 27.4329H1.9422C1.30386 27.4329 0.785873 26.9149 0.785873 26.2754C0.785873 25.6359 1.30386 25.1179 1.9422 25.1179H26.6274Z" fill="white"/>
</svg>
