<svg width="15" height="14" viewBox="0 0 15 14" fill="none" xmlns="http://www.w3.org/2000/svg">
<path fill-rule="evenodd" clip-rule="evenodd" d="M8.25437 10.3497C8.14563 10.465 7.99112 10.5369 7.81999 10.5369C7.64885 10.5369 7.49554 10.4662 7.38738 10.3527L4.26173 7.48674C4.01809 7.2627 4.00265 6.88419 4.22667 6.64056C4.4507 6.39751 4.82921 6.38148 5.07285 6.6055L7.21853 8.57411V0.600168C7.21853 0.268587 7.4883 0 7.81988 0C8.15087 0 8.41946 0.268587 8.41946 0.600168V8.57411L10.5651 6.6055C10.8088 6.38147 11.1885 6.39751 11.4113 6.64056C11.6354 6.88419 11.6199 7.2627 11.3763 7.48674C10.3364 8.44046 9.28869 9.39009 8.25365 10.3503L8.25437 10.3497ZM14.2192 12.7997C14.552 12.7997 14.8206 13.0683 14.8206 13.3998C14.8206 13.7314 14.552 14 14.2192 14H1.41952C1.08853 14 0.819946 13.7314 0.819946 13.3998C0.819946 13.0683 1.08853 12.7997 1.41952 12.7997H14.2192Z" fill="white"/>
</svg>
