<svg width="38" height="20" viewBox="0 0 38 20" fill="none" xmlns="http://www.w3.org/2000/svg">
<path d="M18.0669 16.5169C16.8802 14.4653 15.0514 12.9942 12.9172 12.2968C13.9729 11.6683 14.7931 10.7107 15.2518 9.57102C15.7106 8.43131 15.7825 7.17251 15.4566 5.98795C15.1307 4.80339 14.425 3.75856 13.4478 3.01391C12.4706 2.26926 11.276 1.86597 10.0475 1.86597C8.81888 1.86597 7.62427 2.26926 6.64708 3.01391C5.66989 3.75856 4.96416 4.80339 4.63825 5.98795C4.31235 7.17251 4.38431 8.43131 4.84306 9.57102C5.30182 10.7107 6.12201 11.6683 7.17769 12.2968C5.04348 12.9934 3.21472 14.4645 2.02801 16.5169C1.98449 16.5879 1.95562 16.6668 1.94311 16.7491C1.9306 16.8314 1.9347 16.9154 1.95517 16.9961C1.97564 17.0767 2.01206 17.1525 2.06229 17.2189C2.11251 17.2853 2.17552 17.3409 2.2476 17.3826C2.31968 17.4242 2.39937 17.451 2.48197 17.4613C2.56457 17.4717 2.6484 17.4653 2.72852 17.4428C2.80864 17.4202 2.88342 17.3818 2.94846 17.3298C3.01349 17.2779 3.06747 17.2134 3.10719 17.1403C4.57519 14.6032 7.1699 13.0885 10.0475 13.0885C12.925 13.0885 15.5197 14.6032 16.9877 17.1403C17.0274 17.2134 17.0814 17.2779 17.1464 17.3298C17.2115 17.3818 17.2863 17.4202 17.3664 17.4428C17.4465 17.4653 17.5303 17.4717 17.6129 17.4613C17.6955 17.451 17.7752 17.4242 17.8473 17.3826C17.9194 17.3409 17.9824 17.2853 18.0326 17.2189C18.0828 17.1525 18.1193 17.0767 18.1397 16.9961C18.1602 16.9154 18.1643 16.8314 18.1518 16.7491C18.1393 16.6668 18.1104 16.5879 18.0669 16.5169ZM5.68398 7.47827C5.68398 6.61526 5.93989 5.77162 6.41935 5.05405C6.89882 4.33648 7.5803 3.7772 8.37762 3.44694C9.17494 3.11668 10.0523 3.03027 10.8987 3.19864C11.7452 3.367 12.5227 3.78258 13.1329 4.39283C13.7431 5.00307 14.1587 5.78057 14.3271 6.627C14.4955 7.47343 14.409 8.35078 14.0788 9.1481C13.7485 9.94542 13.1892 10.6269 12.4717 11.1064C11.7541 11.5858 10.9105 11.8417 10.0475 11.8417C8.89057 11.8405 7.78142 11.3804 6.96338 10.5623C6.14533 9.7443 5.68521 8.63515 5.68398 7.47827Z" fill="white"/>
<line x1="30.3511" y1="1.77905" x2="30.3511" y2="18.1643" stroke="white" stroke-opacity="0.8" stroke-width="0.712404"/>
</svg>
