<svg width="24" height="24" viewBox="0 0 24 24" fill="none" xmlns="http://www.w3.org/2000/svg">
<path d="M22.0438 12.0161C22.0438 11.2752 21.9773 10.5628 21.8539 9.87891H12.0132V13.9206H17.6364C17.3942 15.2267 16.6581 16.3333 15.5515 17.0742V19.6958H18.9283C20.904 17.8768 22.0438 15.1982 22.0438 12.0161Z" fill="#4285F4"/>
<path d="M12.0132 22.227C14.8343 22.227 17.1995 21.2914 18.9283 19.6956L15.5515 17.074C14.6159 17.7009 13.419 18.0713 12.0132 18.0713C9.29182 18.0713 6.98838 16.2333 6.16674 13.7637H2.67596V16.4708C4.39523 19.8856 7.92876 22.227 12.0132 22.227Z" fill="#34A853"/>
<path d="M6.16671 13.7635C5.95773 13.1366 5.839 12.467 5.839 11.7783C5.839 11.0896 5.95773 10.42 6.16671 9.79307V7.08594H2.67593C1.94452 8.54196 1.56393 10.1489 1.56458 11.7783C1.56458 13.4643 1.96827 15.0601 2.67593 16.4707L6.16671 13.7635Z" fill="#FBBC05"/>
<path d="M12.0132 5.48552C13.5472 5.48552 14.9246 6.0127 16.0074 7.04806L19.0043 4.05122C17.1948 2.36519 14.8296 1.32983 12.0132 1.32983C7.92876 1.32983 4.39523 3.67127 2.67596 7.08606L6.16674 9.79319C6.98838 7.32353 9.29182 5.48552 12.0132 5.48552Z" fill="#EA4335"/>
</svg>
