<svg width="26" height="23" viewBox="0 0 26 23" fill="none" xmlns="http://www.w3.org/2000/svg">
<path id="Vector" d="M25.7859 7.91676C25.7859 15.9395 13.8905 22.4333 13.3839 22.7015C13.2504 22.7733 13.1011 22.8109 12.9495 22.8109C12.7979 22.8109 12.6487 22.7733 12.5151 22.7015C12.0086 22.4333 0.113159 15.9395 0.113159 7.91676C0.115283 6.03282 0.864613 4.22666 2.19676 2.89451C3.5289 1.56237 5.33506 0.813037 7.219 0.810913C9.5857 0.810913 11.6579 1.82865 12.9495 3.54895C14.2412 1.82865 16.3133 0.810913 18.68 0.810913C20.564 0.813037 22.3701 1.56237 23.7023 2.89451C25.0344 4.22666 25.7837 6.03282 25.7859 7.91676Z" fill="white"/>
</svg>
