<svg width="38" height="21" viewBox="0 0 38 21" fill="none" xmlns="http://www.w3.org/2000/svg">
<g clip-path="url(#clip0_32_1893)">
<path d="M16.281 6.472H13.7876V4.60194C13.7876 3.61 13.3936 2.65868 12.6922 1.95727C11.9908 1.25586 11.0394 0.861816 10.0475 0.861816C9.05556 0.861816 8.10425 1.25586 7.40284 1.95727C6.70143 2.65868 6.30738 3.61 6.30738 4.60194V6.472H3.81397C3.48332 6.472 3.16622 6.60335 2.93241 6.83715C2.69861 7.07095 2.56726 7.38806 2.56726 7.71871V16.4457C2.56726 16.7763 2.69861 17.0934 2.93241 17.3272C3.16622 17.561 3.48332 17.6924 3.81397 17.6924H16.281C16.6117 17.6924 16.9288 17.561 17.1626 17.3272C17.3964 17.0934 17.5277 16.7763 17.5277 16.4457V7.71871C17.5277 7.38806 17.3964 7.07095 17.1626 6.83715C16.9288 6.60335 16.6117 6.472 16.281 6.472ZM7.55409 4.60194C7.55409 3.94064 7.81679 3.30643 8.28439 2.83883C8.752 2.37122 9.38621 2.10852 10.0475 2.10852C10.7088 2.10852 11.343 2.37122 11.8106 2.83883C12.2782 3.30643 12.5409 3.94064 12.5409 4.60194V6.472H7.55409V4.60194ZM16.281 16.4457H3.81397V7.71871H16.281V16.4457ZM10.9825 12.0822C10.9825 12.2671 10.9277 12.4479 10.825 12.6017C10.7222 12.7554 10.5762 12.8753 10.4053 12.946C10.2345 13.0168 10.0465 13.0353 9.86509 12.9992C9.68371 12.9632 9.5171 12.8741 9.38634 12.7433C9.25557 12.6126 9.16652 12.446 9.13044 12.2646C9.09436 12.0832 9.11288 11.8952 9.18365 11.7244C9.25442 11.5535 9.37426 11.4075 9.52803 11.3047C9.68179 11.202 9.86257 11.1472 10.0475 11.1472C10.2955 11.1472 10.5333 11.2457 10.7087 11.421C10.884 11.5964 10.9825 11.8342 10.9825 12.0822Z" fill="white"/>
</g>
<line x1="30.3511" y1="2.01953" x2="30.3511" y2="18.4048" stroke="white" stroke-opacity="0.8" stroke-width="0.712404"/>
<defs>
<clipPath id="clip0_32_1893">
<rect width="19.9473" height="19.9473" fill="white" transform="translate(0.0739746 0.238525)"/>
</clipPath>
</defs>
</svg>
