<svg width="34" height="33" viewBox="0 0 34 33" fill="none" xmlns="http://www.w3.org/2000/svg">
<g id="Frame">
<path id="Vector" d="M28.1836 6.23244V26.7673C28.1836 27.3119 27.9673 27.8342 27.5822 28.2193C27.1971 28.6044 26.6748 28.8208 26.1301 28.8208H20.9964C20.4518 28.8208 19.9295 28.6044 19.5444 28.2193C19.1593 27.8342 18.9429 27.3119 18.9429 26.7673V6.23244C18.9429 5.68782 19.1593 5.16551 19.5444 4.78041C19.9295 4.3953 20.4518 4.17896 20.9964 4.17896H26.1301C26.6748 4.17896 27.1971 4.3953 27.5822 4.78041C27.9673 5.16551 28.1836 5.68782 28.1836 6.23244ZM12.7825 4.17896H7.64876C7.10414 4.17896 6.58183 4.3953 6.19673 4.78041C5.81162 5.16551 5.59528 5.68782 5.59528 6.23244V26.7673C5.59528 27.3119 5.81162 27.8342 6.19673 28.2193C6.58183 28.6044 7.10414 28.8208 7.64876 28.8208H12.7825C13.3271 28.8208 13.8494 28.6044 14.2345 28.2193C14.6196 27.8342 14.836 27.3119 14.836 26.7673V6.23244C14.836 5.68782 14.6196 5.16551 14.2345 4.78041C13.8494 4.3953 13.3271 4.17896 12.7825 4.17896Z" fill="white"/>
</g>
</svg>
