<svg width="21" height="20" viewBox="0 0 21 20" fill="none" xmlns="http://www.w3.org/2000/svg">
<g id="Frame">
<path id="Vector" d="M18.2759 17.0579L14.3642 13.1469C15.498 11.7858 16.0633 10.0399 15.9427 8.27251C15.822 6.50512 15.0246 4.85229 13.7163 3.65785C12.4081 2.46341 10.6897 1.81932 8.91866 1.85957C7.14762 1.89982 5.46027 2.62131 4.20763 3.87395C2.95499 5.12659 2.2335 6.81394 2.19325 8.58498C2.153 10.356 2.79709 12.0744 3.99153 13.3827C5.18597 14.6909 6.8388 15.4883 8.60618 15.609C10.3736 15.7297 12.1194 15.1643 13.4806 14.0305L17.3916 17.9422C17.4496 18.0003 17.5186 18.0464 17.5944 18.0778C17.6703 18.1092 17.7516 18.1254 17.8337 18.1254C17.9159 18.1254 17.9972 18.1092 18.073 18.0778C18.1489 18.0464 18.2179 18.0003 18.2759 17.9422C18.334 17.8842 18.3801 17.8152 18.4115 17.7394C18.4429 17.6635 18.4591 17.5822 18.4591 17.5001C18.4591 17.4179 18.4429 17.3366 18.4115 17.2607C18.3801 17.1849 18.334 17.1159 18.2759 17.0579ZM3.45874 8.75006C3.45874 7.63754 3.78864 6.55 4.40672 5.62497C5.0248 4.69995 5.90331 3.97898 6.93114 3.55323C7.95898 3.12749 9.08998 3.0161 10.1811 3.23314C11.2723 3.45018 12.2745 3.98591 13.0612 4.77258C13.8479 5.55925 14.3836 6.56153 14.6007 7.65267C14.8177 8.74382 14.7063 9.87482 14.2806 10.9027C13.8548 11.9305 13.1338 12.809 12.2088 13.4271C11.2838 14.0452 10.1963 14.3751 9.08374 14.3751C7.5924 14.3734 6.16262 13.7802 5.10809 12.7257C4.05355 11.6712 3.46039 10.2414 3.45874 8.75006Z" fill="white"/>
</g>
</svg>
