<svg width="175" height="25" viewBox="0 0 175 25" fill="none" xmlns="http://www.w3.org/2000/svg">
<path d="M16.2872 2.82603C16.1611 2.76457 16.0202 2.73972 15.8807 2.75431C15.7412 2.76889 15.6085 2.82232 15.4978 2.90853L8.95032 8.00009H4.70813C4.31031 8.00009 3.92877 8.15813 3.64747 8.43943C3.36617 8.72074 3.20813 9.10227 3.20813 9.50009V15.5001C3.20813 15.8979 3.36617 16.2795 3.64747 16.5608C3.92877 16.8421 4.31031 17.0001 4.70813 17.0001H8.95032L15.4978 22.0917C15.6086 22.1778 15.7414 22.2311 15.8809 22.2456C16.0205 22.26 16.1614 22.235 16.2875 22.1734C16.4136 22.1117 16.5198 22.016 16.5942 21.8969C16.6685 21.7779 16.708 21.6404 16.7081 21.5001V3.50009C16.7081 3.35959 16.6687 3.2219 16.5943 3.10273C16.5199 2.98355 16.4135 2.88768 16.2872 2.82603ZM15.2081 19.9663L9.66844 15.6585C9.5371 15.5556 9.37499 15.4998 9.20813 15.5001H4.70813V9.50009H9.20813C9.37499 9.50037 9.5371 9.44457 9.66844 9.34166L15.2081 5.03384V19.9663ZM20.4581 10.2501V14.7501C20.4581 14.949 20.3791 15.1398 20.2385 15.2804C20.0978 15.4211 19.907 15.5001 19.7081 15.5001C19.5092 15.5001 19.3185 15.4211 19.1778 15.2804C19.0371 15.1398 18.9581 14.949 18.9581 14.7501V10.2501C18.9581 10.0512 19.0371 9.86042 19.1778 9.71976C19.3185 9.57911 19.5092 9.50009 19.7081 9.50009C19.907 9.50009 20.0978 9.57911 20.2385 9.71976C20.3791 9.86042 20.4581 10.0512 20.4581 10.2501ZM23.4581 8.75009V16.2501C23.4581 16.449 23.3791 16.6398 23.2385 16.7804C23.0978 16.9211 22.907 17.0001 22.7081 17.0001C22.5092 17.0001 22.3185 16.9211 22.1778 16.7804C22.0371 16.6398 21.9581 16.449 21.9581 16.2501V8.75009C21.9581 8.55118 22.0371 8.36042 22.1778 8.21976C22.3185 8.07911 22.5092 8.00009 22.7081 8.00009C22.907 8.00009 23.0978 8.07911 23.2385 8.21976C23.3791 8.36042 23.4581 8.55118 23.4581 8.75009Z" fill="white"/>
<rect x="34.9581" y="8.5" width="140" height="8" rx="4" fill="#303030"/>
<rect x="34.9581" y="8.5" width="71" height="8" rx="4" fill="white"/>
</svg>
